<svg xmlns="http://www.w3.org/2000/svg" width="19" height="19" viewBox="0 0 19 19" fill="none"><g id="akar-icons:location"><g id="Group"><path id="Vector" d="M9.5 10.292C10.8117 10.292 11.875 9.22867 11.875 7.91699C11.875 6.60532 10.8117 5.54199 9.5 5.54199C8.18832 5.54199 7.125 6.60532 7.125 7.91699C7.125 9.22867 8.18832 10.292 9.5 10.292Z" stroke="#F8F8F8" stroke-width="1.58333" stroke-linecap="round" stroke-linejoin="round"></path><path id="Vector_2" d="M9.4974 1.5835C7.81769 1.5835 6.20678 2.25076 5.01905 3.43849C3.83132 4.62622 3.16406 6.23712 3.16406 7.91683C3.16406 9.41466 3.48231 10.3947 4.35156 11.4793L9.4974 17.4168L14.6432 11.4793C15.5125 10.3947 15.8307 9.41466 15.8307 7.91683C15.8307 6.23712 15.1635 4.62622 13.9757 3.43849C12.788 2.25076 11.1771 1.5835 9.4974 1.5835V1.5835Z" stroke="#F8F8F8" stroke-width="1.58333" stroke-linecap="round" stroke-linejoin="round"></path></g></g></svg>