<svg xmlns="http://www.w3.org/2000/svg" width="19" height="19" viewBox="0 0 19 19" fill="none"><g id="ant-design:mail-outlined"><path id="Vector" d="M16.5106 3.0525L1.91301 2.83244C1.60246 2.82776 1.34778 3.07487 1.3431 3.38542L1.17382 14.6143C1.16914 14.9249 1.41625 15.1796 1.7268 15.1842L16.3244 15.4043C16.6349 15.409 16.8896 15.1619 16.8943 14.8513L17.0636 3.62241C17.0683 3.31186 16.8211 3.05718 16.5106 3.0525ZM15.7795 4.98593L15.6416 14.1305L2.44765 13.9316L2.58551 4.78702L2.10695 4.4025L2.80983 3.52687L3.55196 4.12244L14.8353 4.29254L15.595 3.71961L16.2712 4.61603L15.7795 4.98593ZM14.8353 4.29079L9.12663 8.59201L3.55023 4.12066L2.8081 3.52508L2.10522 4.40072L2.58378 4.78524L8.50696 9.53559C8.6773 9.6721 8.88826 9.74798 9.10652 9.75127C9.32479 9.75456 9.53793 9.68507 9.71231 9.55376L15.7795 4.98593L16.2694 4.61601L15.5932 3.71958L14.8353 4.29079Z" fill="#F8F8F8"></path></g></svg>