<svg xmlns="http://www.w3.org/2000/svg" width="18" height="18" viewBox="0 0 18 18" fill="none"><g id="bi:phone"><g id="Group"><path id="Vector" d="M12.375 1.125C12.6734 1.125 12.9595 1.24353 13.1705 1.4545C13.3815 1.66548 13.5 1.95163 13.5 2.25V15.75C13.5 16.0484 13.3815 16.3345 13.1705 16.5455C12.9595 16.7565 12.6734 16.875 12.375 16.875H5.625C5.32663 16.875 5.04048 16.7565 4.82951 16.5455C4.61853 16.3345 4.5 16.0484 4.5 15.75V2.25C4.5 1.95163 4.61853 1.66548 4.82951 1.4545C5.04048 1.24353 5.32663 1.125 5.625 1.125H12.375ZM5.625 0C5.02826 0 4.45597 0.237053 4.03401 0.65901C3.61205 1.08097 3.375 1.65326 3.375 2.25V15.75C3.375 16.3467 3.61205 16.919 4.03401 17.341C4.45597 17.7629 5.02826 18 5.625 18H12.375C12.9717 18 13.544 17.7629 13.966 17.341C14.3879 16.919 14.625 16.3467 14.625 15.75V2.25C14.625 1.65326 14.3879 1.08097 13.966 0.65901C13.544 0.237053 12.9717 0 12.375 0L5.625 0Z" fill="#F8F8F8"></path><path id="Vector_2" d="M9 15.75C9.29837 15.75 9.58452 15.6315 9.79549 15.4205C10.0065 15.2095 10.125 14.9234 10.125 14.625C10.125 14.3266 10.0065 14.0405 9.79549 13.8295C9.58452 13.6185 9.29837 13.5 9 13.5C8.70163 13.5 8.41548 13.6185 8.20451 13.8295C7.99353 14.0405 7.875 14.3266 7.875 14.625C7.875 14.9234 7.99353 15.2095 8.20451 15.4205C8.41548 15.6315 8.70163 15.75 9 15.75Z" fill="#F8F8F8"></path></g></g></svg>