<svg xmlns="http://www.w3.org/2000/svg" width="42" height="42" viewBox="0 0 42 42" fill="none"><g id="clarity:certificate-solid" clip-path="url(#clip0_130_338)"><path id="Vector" d="M22.1654 35H4.66536C4.04653 35 3.45303 34.7542 3.01545 34.3166C2.57786 33.879 2.33203 33.2855 2.33203 32.6667V9.33333C2.33203 8.71449 2.57786 8.121 3.01545 7.68342C3.45303 7.24583 4.04653 7 4.66536 7H37.332C37.9509 7 38.5444 7.24583 38.982 7.68342C39.4195 8.121 39.6654 8.71449 39.6654 9.33333V21.4317C38.1111 19.4521 35.8503 18.1518 33.3576 17.8039C30.8649 17.4559 28.3344 18.0874 26.2975 19.5656C24.2605 21.0439 22.8756 23.2539 22.4336 25.7316C21.9916 28.2093 22.5269 30.7619 23.927 32.8533L22.842 34.1833L22.1654 35ZM8.16537 14V15.8667H27.9987V14H8.16537ZM8.16537 20.5333H20.9987V18.6667H8.16537V20.5333ZM8.16537 28.7H19.832V26.8333H8.16537V28.7Z" fill="#105D63"></path><path id="Vector_2" d="M39.4688 27.5218C39.4719 26.2917 39.1696 25.08 38.589 23.9955C38.0085 22.911 37.1677 21.9875 36.1423 21.308C35.1169 20.6285 33.9388 20.2142 32.7138 20.1022C31.4888 19.9902 30.2551 20.184 29.1235 20.6663C27.9918 21.1486 26.9976 21.9042 26.2299 22.8655C25.4623 23.8267 24.9453 24.9635 24.7253 26.1738C24.5053 27.3841 24.5891 28.6301 24.9694 29.8C25.3496 30.9699 26.0143 32.0271 26.9038 32.8768L24.6404 35.6418L25.6904 39.8535L29.9604 34.6501C31.3121 35.0498 32.7505 35.0498 34.1021 34.6501L38.3721 39.8535L39.4221 35.6418L37.1588 32.8768C37.8866 32.1874 38.4667 31.3571 38.8638 30.4366C39.2609 29.516 39.4668 28.5244 39.4688 27.5218ZM26.9388 27.5218C26.9249 26.5106 27.2121 25.5181 27.7638 24.6705C28.3155 23.8229 29.1068 23.1586 30.0371 22.762C30.9674 22.3653 31.9946 22.2543 32.9881 22.4431C33.9817 22.6318 34.8967 23.1118 35.6167 23.8219C36.3367 24.5321 36.8293 25.4403 37.0318 26.4311C37.2342 27.422 37.1374 28.4507 36.7537 29.3863C36.3699 30.322 35.7166 31.1225 34.8767 31.6858C34.0369 32.2492 33.0484 32.55 32.0371 32.5501C30.6972 32.5533 29.4104 32.0264 28.4574 31.0844C27.5045 30.1424 26.9628 28.8617 26.9504 27.5218H26.9388Z" fill="#105D63"></path></g><defs><clipPath id="clip0_130_338"><rect width="42" height="42" fill="white"></rect></clipPath></defs></svg>