<svg xmlns="http://www.w3.org/2000/svg" width="10" height="20" viewBox="0 0 10 20" fill="none"><path fill-rule="evenodd" clip-rule="evenodd" d="M0.208579 19.7738C0.274528 19.8454 0.352874 19.9022 0.439128 19.941C0.525382 19.9798 0.617849 19.9998 0.711234 19.9998C0.804619 19.9998 0.897086 19.9798 0.98334 19.941C1.06959 19.9022 1.14794 19.8454 1.21389 19.7738L9.73347 10.5441C9.79959 10.4727 9.85205 10.3878 9.88784 10.2943C9.92363 10.2009 9.94205 10.1007 9.94205 9.99955C9.94205 9.89839 9.92363 9.79821 9.88784 9.70477C9.85205 9.61133 9.79959 9.52645 9.73347 9.455L1.21389 0.225317C1.08058 0.080893 0.899767 -0.000244142 0.711234 -0.000244141C0.522702 -0.000244139 0.341891 0.080893 0.208579 0.225317C0.0752661 0.369741 0.000371716 0.565621 0.000371715 0.769867C0.000371713 0.974113 0.0752661 1.16999 0.208579 1.31442L8.22693 9.99955L0.208579 18.6847C0.142462 18.7561 0.0900055 18.841 0.0542141 18.9345C0.0184227 19.0279 0 19.1281 0 19.2292C0 19.3304 0.0184227 19.4306 0.0542141 19.524C0.0900055 19.6175 0.142462 19.7023 0.208579 19.7738Z" fill="white"></path></svg>