<svg xmlns="http://www.w3.org/2000/svg" width="10" height="20" viewBox="0 0 10 20" fill="none"><path fill-rule="evenodd" clip-rule="evenodd" d="M9.73283 19.7739C9.66688 19.8455 9.58853 19.9023 9.50228 19.9411C9.41602 19.9799 9.32356 19.9998 9.23017 19.9998C9.13679 19.9998 9.04432 19.9799 8.95807 19.9411C8.87181 19.9023 8.79347 19.8455 8.72752 19.7739L0.207931 10.5442C0.141815 10.4727 0.0893594 10.3878 0.053568 10.2944C0.0177766 10.201 -0.000647433 10.1008 -0.000647433 9.99962C-0.000647433 9.89845 0.0177766 9.79827 0.053568 9.70483C0.0893594 9.61139 0.141815 9.52651 0.207931 9.45506L8.72752 0.225378C8.86083 0.0809539 9.04164 -0.000183327 9.23017 -0.000183325C9.4187 -0.000183324 9.59952 0.0809539 9.73283 0.225378C9.86614 0.369802 9.94103 0.565683 9.94103 0.769929C9.94103 0.974176 9.86614 1.17006 9.73283 1.31448L1.71448 9.99962L9.73283 18.6847C9.79894 18.7562 9.8514 18.8411 9.88719 18.9345C9.92298 19.028 9.94141 19.1281 9.94141 19.2293C9.94141 19.3305 9.92298 19.4306 9.88719 19.5241C9.8514 19.6175 9.79894 19.7024 9.73283 19.7739Z" fill="white"></path></svg>